# xmcd CD database file
# Copyright (C) 1996 Ti Kan
#
# Track frame offsets:
# 	183
# 	17225
# 	34320
# 	46600
# 	60095
# 	76710
# 	92970
# 	109348
# 	122170
# 	137748
#
# Disc length: 2003 seconds
#
# Revision: 1
# Processed by: cddbd v1.4b41PL1 Copyright (c) Steve Scherf et al.
# Submitted via: DiscPlay 3.4.1
#
DISCID=7907d10a
DTITLE=Conway Twitty - Crazy In Love
DYEAR=1900
DGENRE=
TTITLE0=A Little Of You
TTITLE1=Crazy In Love
TTITLE2=When You're In Love With A Beautiful Woman
TTITLE3=I'm Tired Of Being Something (That Means Nothing To You)
TTITLE4=What's Another Goodbye
TTITLE5=Shadow Of A Distant Friend
TTITLE6=One Bridge I Didn't Burn
TTITLE7=I Couldn't See You Leavin'
TTITLE8=Just The Thought Of Losing You
TTITLE9=Heart's Breakin' All Over Town
EXTD=
EXTT0=
EXTT1=
EXTT2=
EXTT3=
EXTT4=
EXTT5=
EXTT6=
EXTT7=
EXTT8=
EXTT9=
PLAYORDER=
